[Header]
FileType HTR
DataType HTRS
FileVersion 1
NumSegments 22
NumFrames 4
DataFrameRate 24
EulerRotationOrder ZYX
CalibrationUnits mm
RotationUnits Degrees
GlobalAxisofGravity Y
BoneLengthAxis Y
ScaleFactor 1.0
[SegmentNames&Hierarchy]
reference	GLOBAL
Hips	reference
Spine	Hips
Spine1	Spine
Neck	Spine1
Head	Neck
LeftShoulder	Spine1
LeftArm	LeftShoulder
LeftForeArm	LeftArm
LeftHand	LeftForeArm
RightShoulder	Spine1
RightArm	RightShoulder
RightForeArm	RightArm
RightHand	RightForeArm
LeftUpLeg	Hips
LeftLeg	LeftUpLeg
LeftFoot	LeftLeg
LeftToeBase	LeftFoot
RightUpLeg	Hips
RightLeg	RightUpLeg
RightFoot	RightLeg
RightToeBase	RightFoot
[BasePosition]
reference	0	0	0	0	0	0	1
Hips	0	0	0	0	0	0	1
Spine	0	0	0	-0	-90	0	1
Spine1	0	0	0	0	0	0	1
Neck	0	0	0	82.64767223	-82.64767223	-90	1
Head	0	0	0	-0	-90	0	1
LeftShoulder	0	0	0	0	0	0	1
LeftArm	0	0	0	0	0	0	1
LeftForeArm	0	0	0	0	0	0	1
LeftHand	0	0	0	0	0	0	1
RightShoulder	0	0	0	0	-0	180	1
RightArm	0	0	0	0	-0	180	1
RightForeArm	0	0	0	0	-0	180	1
RightHand	0	0	0	0	-0	180	1
LeftUpLeg	0	0	0	-0	90	0	1
LeftLeg	0	0	0	-0	90	0	1
LeftFoot	0	0	0	-23.42853957	23.42853957	-90	1
LeftToeBase	0	0	0	0	-0	-90	1
RightUpLeg	0	0	0	-0	90	0	1
RightLeg	0	0	0	-0	90	0	1
RightFoot	0	0	0	-23.42853957	23.42853957	-90	1
RightToeBase	0	0	0	0	-0	-90	1
[reference]
10	0	0	0	0	-0	0	1.0
11	0	0	0	0	-0	0	1.0
12	0	0	0	0	-0	0	1.0
13	0	0	0	0	-0	0	1.0
[Hips]
10	4.910959244	-2.471280098	8.43444252	2.630292654	2.459406137	-99.24086761	1.0
11	4.886217594	-2.662083149	8.615038872	2.564221382	2.724890709	-99.29049683	1.0
12	4.871440887	-2.834325075	8.749759674	2.476011276	2.697158337	-99.06062317	1.0
13	4.858201027	-3.049249887	8.813980103	2.349697113	1.478936076	-98.35340118	1.0
[Spine]
10	0	0	0.7457100153	-42.81809998	87.32874298	-34.80209351	1.0
11	0	0	0.7457100153	-25.52153397	86.78453064	-16.9038353	1.0
12	0	0	0.7457100153	-40.12059784	87.19755554	-33.01420593	1.0
13	0	0	0.7457100153	-61.88498688	87.94771576	-55.48873138	1.0
[Spine1]
10	0	0	2.140589952	5.986379623	-7.259244442	-0.9187555313	1.0
11	0	0	2.140589952	7.9352808	-3.551599026	-0.6590336561	1.0
12	0	0	2.140589952	4.952198982	-5.83100605	-0.7925869823	1.0
13	0	0	2.140589952	3.674548149	-5.313942909	-0.7568818331	1.0
[Neck]
10	0	0	2.32246995	-45.10829163	97.18595886	-29.1956768	1.0
11	0	0	2.32246995	-36.4467392	95.08187866	-20.81070709	1.0
12	0	0	2.32246995	-50.24609375	95.54748535	-34.80634308	1.0
13	0	0	2.32246995	-51.79428101	94.9597702	-36.59309387	1.0
[Head]
10	0	-0.1818799973	1.409579992	-13.6140976	93.18070221	-7.08660984	1.0
11	0	-0.1818799973	1.409579992	-17.7112236	85.41807556	-7.848247051	1.0
12	0	-0.1818799973	1.409579992	-9.810693741	93.01895142	-4.755496979	1.0
13	0	-0.1818799973	1.409579992	-7.895294189	94.03931427	-5.097640991	1.0
[LeftShoulder]
10	0.3668199778	0.02662999928	1.946700096	-17.27794075	3.496157885	-11.2238102	1.0
11	0.3668199778	0.02662999928	1.946700096	-19.05455399	-0.7408423424	-11.25215435	1.0
12	0.3668199778	0.02662999928	1.946700096	-17.03505325	3.031461716	-11.80602074	1.0
13	0.3668199778	0.02662999928	1.946700096	-16.71726036	3.531205416	-12.06696415	1.0
[LeftArm]
10	1.140689969	0	0	70.2624054	66.99305725	20.14810753	1.0
11	1.140689969	0	0	69.78366089	69.07569885	20.27815628	1.0
12	1.140689969	0	0	67.89273071	66.89842987	17.40847778	1.0
13	1.140689969	0	0	67.38054657	66.736763	16.67136192	1.0
[LeftForeArm]
10	2.749800205	0	0	24.15709686	-14.05401802	-137.0196533	1.0
11	2.749800205	0	0	20.54292679	-12.02264309	-135.8597565	1.0
12	2.749800205	0	0	22.72295952	-13.30258083	-136.7323608	1.0
13	2.749800205	0	0	22.91331482	-13.28733349	-136.9361115	1.0
[LeftHand]
10	2.295179844	0	0	-10.44333076	-0.9232512712	-22.98396301	1.0
11	2.295179844	0	0	-8.487421989	-0.4149278998	-22.06574249	1.0
12	2.295179844	0	0	-9.878175735	-0.8957680464	-22.81849861	1.0
13	2.295179844	0	0	-9.679068565	-1.515858531	-22.80235481	1.0
[RightShoulder]
10	-0.3601199985	0.02662999928	1.946700096	-7.353516102	7.578836441	-177.226181	1.0
11	-0.3601199985	0.02662999928	1.946700096	-8.769708633	4.992232323	-177.4962463	1.0
12	-0.3601199985	0.02662999928	1.946700096	-7.618820667	6.946447372	-177.2549744	1.0
13	-0.3601199985	0.02662999928	1.946700096	-7.405452251	7.146168709	-177.7653503	1.0
[RightArm]
10	-1.140689969	0	0	-123.5822754	-102.1254883	2.055392027	1.0
11	-1.140689969	0	0	-116.7152557	-103.0625534	-3.033741236	1.0
12	-1.140689969	0	0	-121.7764893	-103.2226715	0.5373833776	1.0
13	-1.140689969	0	0	-122.5738525	-103.6141205	1.549591064	1.0
[RightForeArm]
10	-2.749800205	0	0	48.08405685	21.9155159	-45.73832321	1.0
11	-2.749800205	0	0	52.91208649	24.41082954	-43.67223358	1.0
12	-2.749800205	0	0	49.51939774	22.66405487	-45.168396	1.0
13	-2.749800205	0	0	50.18796158	22.9609127	-45.02360535	1.0
[RightHand]
10	-2.295179844	0	0	2.328489304	19.23867798	-159.0630951	1.0
11	-2.295179844	0	0	-0.146599859	19.34316635	-158.8518066	1.0
12	-2.295179844	0	0	1.725089431	19.80113792	-159.1981201	1.0
13	-2.295179844	0	0	1.674734712	20.29084778	-159.540451	1.0
[LeftUpLeg]
10	0.9094099998	0	0	36.96893311	-100.9638748	-43.73811722	1.0
11	0.9094099998	0	0	30.10656738	-98.97872925	-34.50794983	1.0
12	0.9094099998	0	0	34.28296661	-98.82501221	-37.6027832	1.0
13	0.9094099998	0	0	35.62321472	-97.20300293	-39.07940674	1.0
[LeftLeg]
10	0	0	-4.498080254	-13.03061485	-84.89084625	32.7431221	1.0
11	0	0	-4.498080254	-28.97509766	-82.7455368	43.54190063	1.0
12	0	0	-4.498080254	-20.83350945	-82.97981262	32.86132813	1.0
13	0	0	-4.498080254	6.079659462	-83.50167084	6.699405193	1.0
[LeftFoot]
10	0	0	-3.729400158	-48.64902115	0.1079272255	104.9344101	1.0
11	0	0	-3.729400158	-42.54150772	0.1395875812	106.967041	1.0
12	0	0	-3.729400158	-36.93998718	-0.6285182238	106.9794922	1.0
13	0	0	-3.729400158	-34.27706528	1.62203896	105.5555496	1.0
[LeftToeBase]
10	0	-1.364109993	-0.5911099911	-9.999999975e-007	9.999999975e-007	9.999999975e-007	1.0
11	0	-1.364109993	-0.5911099911	-9.999999975e-007	9.999999975e-007	9.999999975e-007	1.0
12	0	-1.364109993	-0.5911099911	-9.999999975e-007	9.999999975e-007	9.999999975e-007	1.0
13	0	-1.364109993	-0.5911099911	-9.999999975e-007	9.999999975e-007	9.999999975e-007	1.0
[RightUpLeg]
10	-0.9094099998	0	0	56.0164032	-74.0065918	-60.97420502	1.0
11	-0.9094099998	0	0	72.58561707	-75.05658722	-76.61891174	1.0
12	-0.9094099998	0	0	90.62050629	-78.20093536	-93.45718384	1.0
13	-0.9094099998	0	0	122.2810059	-83.00547791	-124.2759171	1.0
[RightLeg]
10	0	0	-4.498080254	45.95692444	-82.91688538	-24.31406975	1.0
11	0	0	-4.498080254	52.11039352	-84.57305908	-31.81843567	1.0
12	0	0	-4.498080254	1.586524487	-87.57881165	16.24818039	1.0
13	0	0	-4.498080254	-21.89459801	-88.69615173	36.53482056	1.0
[RightFoot]
10	0	0	-3.729400158	-46.79534531	-33.77081299	97.22268677	1.0
11	0	0	-3.729400158	-47.36064911	-35.85874939	100.3571854	1.0
12	0	0	-3.729400158	-45.59982681	-39.23936462	103.8461609	1.0
13	0	0	-3.729400158	-45.81106567	-45.22169876	117.6265335	1.0
[RightToeBase]
10	0	-1.364109993	-0.5911099911	-9.999999975e-007	0	3.000000106e-006	1.0
11	0	-1.364109993	-0.5911099911	-9.999999975e-007	0	3.000000106e-006	1.0
12	0	-1.364109993	-0.5911099911	-9.999999975e-007	0	3.000000106e-006	1.0
13	0	-1.364109993	-0.5911099911	-9.999999975e-007	0	3.000000106e-006	1.0
[EndOfFile]
